<svg width="44" height="44" viewBox="0 0 44 44" fill="none" xmlns="http://www.w3.org/2000/svg">
<rect width="44" height="44" rx="10" fill="#1681FE" fill-opacity="0.1"/>
<path d="M27 20.9999H19.41L22.71 17.7099C22.8983 17.5216 23.0041 17.2662 23.0041 16.9999C23.0041 16.7336 22.8983 16.4782 22.71 16.2899C22.5217 16.1016 22.2663 15.9958 22 15.9958C21.7337 15.9958 21.4783 16.1016 21.29 16.2899L16.29 21.2899C16.199 21.385 16.1276 21.4972 16.08 21.6199C15.98 21.8634 15.98 22.1365 16.08 22.3799C16.1276 22.5027 16.199 22.6148 16.29 22.7099L21.29 27.7099C21.383 27.8037 21.4936 27.8781 21.6154 27.9288C21.7373 27.9796 21.868 28.0057 22 28.0057C22.132 28.0057 22.2627 27.9796 22.3846 27.9288C22.5065 27.8781 22.6171 27.8037 22.71 27.7099C22.8037 27.617 22.8781 27.5064 22.9289 27.3845C22.9797 27.2627 23.0058 27.132 23.0058 26.9999C23.0058 26.8679 22.9797 26.7372 22.9289 26.6154C22.8781 26.4935 22.8037 26.3829 22.71 26.2899L19.41 22.9999H27C27.2652 22.9999 27.5196 22.8946 27.7071 22.707C27.8947 22.5195 28 22.2652 28 21.9999C28 21.7347 27.8947 21.4804 27.7071 21.2928C27.5196 21.1053 27.2652 20.9999 27 20.9999Z" fill="#545B67"/>
</svg>
